<svg width="20" height="21" viewBox="0 0 20 21" fill="none" xmlns="http://www.w3.org/2000/svg">
<path d="M11.4026 8.90065L12.0333 9.30649L12.0333 9.30649L11.4026 8.90065ZM7.58335 7.99999C7.58335 8.4142 7.91914 8.74999 8.33335 8.74999C8.74757 8.74999 9.08335 8.4142 9.08335 7.99999H7.58335ZM9.25002 11.75C9.25002 12.1642 9.58581 12.5 10 12.5C10.4142 12.5 10.75 12.1642 10.75 11.75H9.25002ZM10.75 13.8333C10.75 13.4191 10.4142 13.0833 10 13.0833C9.58581 13.0833 9.25002 13.4191 9.25002 13.8333H10.75ZM9.25002 14.6667C9.25002 15.0809 9.58581 15.4167 10 15.4167C10.4142 15.4167 10.75 15.0809 10.75 14.6667H9.25002ZM17.5834 10.5C17.5834 14.6881 14.1882 18.0833 10 18.0833V19.5833C15.0166 19.5833 19.0834 15.5166 19.0834 10.5H17.5834ZM10 18.0833C5.81186 18.0833 2.41669 14.6881 2.41669 10.5H0.916687C0.916687 15.5166 4.98343 19.5833 10 19.5833V18.0833ZM2.41669 10.5C2.41669 6.31183 5.81186 2.91666 10 2.91666V1.41666C4.98343 1.41666 0.916687 5.4834 0.916687 10.5H2.41669ZM10 2.91666C14.1882 2.91666 17.5834 6.31183 17.5834 10.5H19.0834C19.0834 5.4834 15.0166 1.41666 10 1.41666V2.91666ZM10.9167 7.99999C10.9167 8.1836 10.8635 8.35249 10.7719 8.49481L12.0333 9.30649C12.276 8.92937 12.4167 8.47997 12.4167 7.99999H10.9167ZM9.08335 7.99999C9.08335 7.49373 9.49376 7.08332 10 7.08332V5.58332C8.66533 5.58332 7.58335 6.6653 7.58335 7.99999H9.08335ZM10 7.08332C10.5063 7.08332 10.9167 7.49373 10.9167 7.99999H12.4167C12.4167 6.6653 11.3347 5.58332 10 5.58332V7.08332ZM9.25002 11.3333V11.75H10.75V11.3333H9.25002ZM10.7719 8.49481C10.6709 8.6518 10.5432 8.81603 10.389 9.0077C10.2426 9.18962 10.0662 9.40356 9.90808 9.62082C9.59721 10.0481 9.25002 10.6261 9.25002 11.3333H10.75C10.75 11.1201 10.8551 10.8688 11.121 10.5033C11.2513 10.3243 11.3944 10.151 11.5577 9.94804C11.7131 9.75484 11.8853 9.53653 12.0333 9.30649L10.7719 8.49481ZM9.25002 13.8333V14.6667H10.75V13.8333H9.25002Z" fill="#999BA2"/>
</svg>
