<svg width="19" height="19" viewBox="0 0 19 19" fill="none" xmlns="http://www.w3.org/2000/svg">
<g clip-path="url(#clip0_2_379)">
<path d="M6.33331 9.50001V12.6667M12.6666 9.50001V12.6667M9.49998 7.91668V14.25M12.8094 17.4167H6.19054C4.36278 17.4167 2.88109 16.0027 2.88109 14.2585V10.397C2.88109 9.83632 2.64769 9.2986 2.23223 8.90214C1.26966 7.98357 1.39479 6.46163 2.49571 5.69757L7.55346 2.18738C8.71392 1.382 10.286 1.382 11.4465 2.18738L16.5042 5.69757C17.6052 6.46163 17.7303 7.98357 16.7677 8.90214C16.3523 9.2986 16.1189 9.83632 16.1189 10.397V14.2585C16.1189 16.0027 14.6372 17.4167 12.8094 17.4167Z" stroke="white" stroke-width="1.5" stroke-linecap="round"/>
</g>
<defs>
<clipPath id="clip0_2_379">
<rect width="19" height="19" fill="white"/>
</clipPath>
</defs>
</svg>
