<svg width="16" height="17" viewBox="0 0 16 17" fill="none" xmlns="http://www.w3.org/2000/svg">
<ellipse cx="7.99999" cy="11.8333" rx="0.666667" ry="0.666667" transform="rotate(-180 7.99999 11.8333)" fill="#F90807"/>
<path d="M8 9.83331L8 5.16664M2 6.58794V10.412C2 11.4276 2.5282 12.366 3.38564 12.8738L6.61436 14.7858C7.4718 15.2936 8.5282 15.2936 9.38564 14.7858L12.6144 12.8738C13.4718 12.366 14 11.4276 14 10.412V6.58794C14 5.57239 13.4718 4.63399 12.6144 4.12621L9.38564 2.21416C8.5282 1.70638 7.4718 1.70638 6.61436 2.21416L3.38564 4.12621C2.5282 4.63399 2 5.57239 2 6.58794Z" stroke="#F90807" stroke-linecap="round"/>
</svg>
